<svg width="280" height="205"><defs id="SvgjsDefs1072"></defs><g id="main_text" rel="mainfill" name="main_text" feature="main_text" xmlns:name="mainText_mainfill" groupname="main_text" fill="#c64e4e" transform="translate(-0.8727699586765656, 135.21101412463548) scale(2.4243602978919774)"><path d="M4.26 10.86 l-3.86 0 q-0.02 -0.12 -0.03 -0.29 t-0.01 -0.33 q0 -0.14 0.01 -0.32 t0.03 -0.3 l9.1 0 q0.02 0.12 0.03 0.28 t0.01 0.32 q0 0.14 -0.01 0.33 t-0.03 0.31 l-3.86 0 l0 13.14 q-0.14 0.02 -0.32 0.03 t-0.36 0.01 q-0.2 0 -0.39 -0.01 t-0.31 -0.03 l0 -13.14 z M15.04 24.04 l-0.38 0 q-0.18 0 -0.41 -0.01 t-0.35 -0.03 l-3.68 -10.2 q0.12 -0.02 0.34 -0.03 t0.42 -0.01 q0.16 0 0.4 0.01 t0.36 0.03 l3.38 9.92 l3.32 -9.92 q0.12 -0.02 0.32 -0.03 t0.36 -0.01 t0.36 0.01 t0.32 0.03 l-4.48 13.22 q-0.36 1.1 -1.02 1.54 t-1.56 0.44 q-0.42 0 -0.85 -0.08 t-0.71 -0.16 q0 -0.62 0.3 -1.12 q0.16 0.06 0.48 0.13 t0.72 0.07 q0.58 0 0.93 -0.28 t0.61 -1.04 z M21.960000000000004 13.8 q0.12 -0.02 0.3 -0.03 t0.3 -0.01 t0.3 0.01 t0.3 0.03 l0.12 1.4 q0.42 -0.64 1.21 -1.14 t2.05 -0.5 q0.94 0 1.72 0.29 t1.33 0.91 t0.86 1.56 t0.31 2.26 t-0.36 2.37 t-1.05 1.78 t-1.7 1.12 t-2.31 0.39 q-0.48 0 -1.04 -0.08 t-1.02 -0.24 l0 4.8 q-0.12 0.02 -0.34 0.03 t-0.32 0.01 q-0.12 0 -0.33 -0.01 t-0.33 -0.03 l0 -14.92 z M23.28 22.7 q0.46 0.18 0.95 0.27 t1.31 0.09 q0.78 0 1.48 -0.25 t1.22 -0.79 t0.82 -1.37 t0.3 -1.99 q0 -1.84 -0.69 -2.88 t-2.23 -1.04 q-0.48 0 -1.04 0.16 t-1.03 0.55 t-0.78 1.02 t-0.31 1.59 l0 4.64 z M34.580000000000005 19.1 q0 2.04 0.94 3 t2.82 0.96 q0.76 0 1.41 -0.13 t1.27 -0.35 q0.1 0.22 0.16 0.54 t0.08 0.58 q-0.58 0.26 -1.36 0.4 t-1.7 0.14 q-1.32 0 -2.27 -0.39 t-1.56 -1.09 t-0.9 -1.67 t-0.29 -2.13 q0 -1.12 0.27 -2.1 t0.82 -1.72 t1.41 -1.16 t2.06 -0.42 q1 0 1.78 0.34 t1.31 0.95 t0.8 1.46 t0.27 1.85 q0 0.18 -0.01 0.46 t-0.03 0.48 l-7.28 0 z M40.580000000000005 18 q0 -0.62 -0.16 -1.22 t-0.5 -1.05 t-0.88 -0.73 t-1.3 -0.28 q-1.4 0 -2.18 0.86 t-0.94 2.42 l5.96 0 z M45.06000000000001 9.62 q0.28 -0.04 0.69 -0.08 t0.87 -0.07 t0.92 -0.05 t0.84 -0.02 q1.88 0 3.27 0.51 t2.3 1.46 t1.35 2.32 t0.44 3.09 q0 7.46 -7.36 7.46 q-0.42 0 -0.9 -0.02 t-0.93 -0.05 t-0.84 -0.08 t-0.65 -0.09 l0 -14.38 z M46.440000000000005 22.8 q0.36 0.04 0.85 0.08 t1.01 0.04 q1.38 0 2.49 -0.3 t1.89 -1.02 t1.2 -1.91 t0.42 -2.97 q0 -3.1 -1.59 -4.55 t-4.41 -1.45 q-0.46 0 -0.99 0.02 t-0.87 0.08 l0 11.98 z M62.16000000000001 24.04 l-0.38 0 q-0.18 0 -0.41 -0.01 t-0.35 -0.03 l-3.68 -10.2 q0.12 -0.02 0.34 -0.03 t0.42 -0.01 q0.16 0 0.4 0.01 t0.36 0.03 l3.38 9.92 l3.32 -9.92 q0.12 -0.02 0.32 -0.03 t0.36 -0.01 t0.36 0.01 t0.32 0.03 l-4.48 13.22 q-0.36 1.1 -1.02 1.54 t-1.56 0.44 q-0.42 0 -0.85 -0.08 t-0.71 -0.16 q0 -0.62 0.3 -1.12 q0.16 0.06 0.48 0.13 t0.72 0.07 q0.58 0 0.93 -0.28 t0.61 -1.04 z M69.08000000000001 13.8 q0.16 -0.02 0.31 -0.03 t0.29 -0.01 q0.16 0 0.3 0.01 t0.3 0.03 q0.04 0.36 0.06 0.9 t0.02 0.94 q0.2 -0.36 0.52 -0.73 t0.75 -0.67 t0.99 -0.49 t1.22 -0.19 q1.76 0 2.56 1.05 t0.8 2.95 l0 6.44 q-0.12 0.02 -0.33 0.03 t-0.33 0.01 q-0.1 0 -0.32 -0.01 t-0.34 -0.03 l0 -6.04 q0 -1.7 -0.53 -2.44 t-1.59 -0.74 q-0.7 0 -1.32 0.28 t-1.07 0.81 t-0.71 1.31 t-0.26 1.78 l0 5.04 q-0.12 0.02 -0.33 0.03 t-0.33 0.01 q-0.1 0 -0.32 -0.01 t-0.34 -0.03 l0 -10.2 z M86.14 19.04 q-0.34 -0.04 -0.85 -0.09 t-0.97 -0.05 q-1.5 0 -2.32 0.56 t-0.82 1.6 q0 0.66 0.25 1.06 t0.65 0.61 t0.88 0.28 t0.96 0.07 q0.62 0 1.16 -0.06 t1.06 -0.16 l0 -3.82 z M86.14 17.259999999999998 q0 -1.32 -0.62 -1.93 t-1.84 -0.61 q-0.8 0 -1.46 0.11 t-1.18 0.27 q-0.1 -0.18 -0.17 -0.52 t-0.07 -0.64 q0.52 -0.16 1.28 -0.27 t1.56 -0.11 q1.94 0 2.88 0.85 t0.94 2.67 l0 6.74 q-0.7 0.14 -1.7 0.28 t-1.9 0.14 q-1.86 0 -2.93 -0.74 t-1.07 -2.4 q0 -0.8 0.31 -1.43 t0.86 -1.06 t1.32 -0.65 t1.69 -0.22 q0.72 0 1.24 0.05 t0.86 0.09 l0 -0.62 z M90.78000000000002 13.8 q0.16 -0.02 0.31 -0.03 t0.29 -0.01 q0.16 0 0.3 0.01 t0.3 0.03 q0.04 0.36 0.06 0.86 t0.02 0.9 q0.18 -0.38 0.46 -0.74 t0.66 -0.64 t0.87 -0.45 t1.11 -0.17 q0.58 0 1 0.14 t0.73 0.39 t0.52 0.59 t0.39 0.76 q0.22 -0.32 0.5 -0.66 t0.64 -0.61 t0.83 -0.44 t1.05 -0.17 q1.78 0 2.57 1.02 t0.79 2.92 l0 6.5 q-0.12 0.02 -0.33 0.03 t-0.33 0.01 q-0.1 0 -0.32 -0.01 t-0.34 -0.03 l0 -6.04 q0 -1.62 -0.53 -2.4 t-1.59 -0.78 q-0.64 0 -1.12 0.26 t-0.8 0.7 t-0.49 1.03 t-0.17 1.25 l0 5.98 q-0.12 0.02 -0.33 0.03 t-0.33 0.01 q-0.1 0 -0.32 -0.01 t-0.34 -0.03 l0 -6.3 q0 -1.54 -0.49 -2.28 t-1.41 -0.74 q-0.62 0 -1.14 0.31 t-0.9 0.87 t-0.59 1.33 t-0.21 1.69 l0 5.12 q-0.12 0.02 -0.33 0.03 t-0.33 0.01 q-0.1 0 -0.32 -0.01 t-0.34 -0.03 l0 -10.2 z M111.48 23.08 q1.6 0 2.39 -1.12 t0.79 -3.06 t-0.79 -3.06 t-2.39 -1.12 t-2.39 1.12 t-0.79 3.06 t0.79 3.06 t2.39 1.12 z M111.48 24.24 q-1.14 0 -2 -0.41 t-1.43 -1.13 t-0.85 -1.7 t-0.28 -2.1 t0.28 -2.1 t0.85 -1.7 t1.43 -1.13 t2 -0.41 t1.99 0.41 t1.42 1.13 t0.86 1.7 t0.29 2.1 t-0.29 2.1 t-0.86 1.7 t-1.42 1.13 t-1.99 0.41 z"></path></g><g id="SvgjsG1074" rel="mainfill" name="symbol" feature="symbol" xmlns:name="symbol_mainfill" fill="#c64e4e" transform="translate(79.233165, 13.233165) scale(1.1778899999999999)"><defs></defs><title>Fichier 88</title><g data-name="Calque 2"><g data-name="Calque 1"><path d="M51.5,32.53c-9.27,0-16.78,3.59-16.78,8V62.45c0,4.43,7.51,8,16.78,8s16.78-3.59,16.78-8V40.56C68.28,36.12,60.77,32.53,51.5,32.53Zm0,1.46c9,0,15.32,3.46,15.32,6.57s-6.29,6.57-15.32,6.57-15.32-3.46-15.32-6.57S42.47,34,51.5,34ZM66.82,61v1.46c0,3.1-6.29,6.57-15.32,6.57s-15.32-3.46-15.32-6.57v-4c2.62,2.8,8.49,4.75,15.32,4.75s12.7-2,15.32-4.75Zm0-5.84c0,3.1-6.29,6.57-15.32,6.57s-15.32-3.46-15.32-6.57v-4c2.62,2.8,8.49,4.75,15.32,4.75s12.7-2,15.32-4.75Zm0-7.3c0,3.1-6.29,6.57-15.32,6.57S36.18,51,36.18,47.85v-4c2.62,2.8,8.49,4.75,15.32,4.75s12.7-2,15.32-4.75Z"></path><circle class="cls-1" cx="51.5" cy="51.5" r="50" style="fill: none; stroke: #c64e4e; stroke-miterlimit: 10; stroke-width: 3px;"></circle></g></g></g></svg>